<svg xmlns="http://www.w3.org/2000/svg" viewBox="0 0 1024 964" role="img" aria-labelledby="title desc">
  <title>Launch Labs icon</title>
  <desc>Launch Labs golf simulator icon with arrow, golf ball, and motion lines.</desc>
  <path fill="#4FB9DB" fill-rule="evenodd" d="M 664 593 L 656 593 L 653 597 L 653 630 L 643 642 L 618 653 L 612 659 L 610 658 L 593 670 L 591 669 L 561 689 L 553 691 L 528 708 L 511 716 L 501 724 L 492 727 L 486 733 L 478 736 L 473 741 L 469 741 L 467 744 L 464 744 L 459 749 L 456 749 L 440 760 L 429 763 L 414 755 L 410 755 L 399 746 L 396 746 L 386 738 L 382 738 L 380 735 L 363 727 L 353 719 L 338 719 L 337 724 L 349 730 L 355 736 L 369 741 L 374 747 L 382 749 L 388 755 L 410 766 L 415 771 L 421 771 L 424 774 L 435 774 L 438 771 L 441 772 L 445 769 L 449 769 L 460 760 L 467 758 L 473 752 L 477 752 L 487 744 L 496 741 L 500 736 L 504 736 L 506 733 L 523 725 L 525 722 L 529 722 L 534 716 L 542 714 L 547 708 L 557 705 L 575 692 L 597 681 L 599 678 L 603 678 L 613 670 L 622 667 L 641 653 L 652 648 L 661 639 L 664 633 Z M 534 563 L 532 560 L 527 560 L 520 568 L 518 568 L 516 570 L 513 571 L 509 576 L 505 576 L 503 579 L 500 579 L 499 581 L 489 587 L 488 589 L 483 593 L 480 593 L 476 598 L 472 598 L 470 601 L 468 601 L 462 606 L 459 606 L 457 609 L 455 609 L 453 611 L 450 612 L 448 615 L 445 615 L 443 617 L 440 617 L 437 620 L 434 620 L 432 623 L 428 623 L 426 626 L 423 626 L 421 628 L 418 628 L 416 631 L 413 631 L 410 634 L 408 634 L 404 637 L 401 637 L 399 639 L 396 639 L 394 642 L 390 642 L 388 645 L 382 645 L 379 648 L 377 647 L 374 650 L 369 650 L 367 652 L 367 663 L 368 664 L 372 664 L 374 662 L 378 662 L 382 659 L 386 659 L 388 656 L 392 656 L 394 653 L 399 653 L 401 651 L 405 650 L 406 648 L 411 647 L 411 646 L 416 642 L 421 642 L 429 637 L 432 637 L 443 629 L 446 629 L 448 626 L 452 626 L 454 623 L 457 623 L 462 618 L 465 618 L 468 615 L 470 615 L 474 612 L 476 609 L 479 609 L 484 604 L 487 604 L 488 602 L 493 598 L 496 598 L 504 593 L 506 590 L 509 590 L 517 582 L 520 582 L 528 574 L 531 574 L 532 573 L 532 567 L 534 565 Z M 560 533 L 560 535 L 559 536 L 559 550 L 563 554 L 578 554 L 579 553 L 579 533 L 578 532 L 562 532 Z M 590 502 L 590 503 L 587 505 L 587 526 L 589 527 L 590 529 L 592 529 L 593 530 L 594 529 L 605 529 L 606 530 L 609 529 L 609 528 L 612 526 L 612 504 L 610 502 Z M 416 497 L 399 505 L 394 510 L 390 510 L 388 513 L 386 513 L 380 518 L 376 519 L 371 524 L 368 524 L 366 527 L 362 527 L 361 529 L 351 533 L 350 535 L 346 535 L 344 538 L 340 538 L 339 540 L 336 540 L 327 546 L 323 546 L 315 551 L 311 551 L 309 554 L 304 554 L 300 557 L 297 557 L 294 560 L 289 560 L 287 562 L 281 562 L 278 565 L 270 565 L 267 568 L 259 568 L 256 571 L 242 571 L 240 573 L 220 573 L 219 571 L 212 571 L 209 568 L 204 568 L 200 563 L 193 560 L 183 569 L 183 572 L 192 582 L 196 582 L 198 585 L 204 585 L 206 587 L 243 587 L 245 585 L 256 585 L 259 582 L 267 582 L 270 579 L 276 579 L 279 576 L 284 576 L 286 574 L 289 574 L 292 571 L 297 571 L 300 568 L 304 568 L 306 565 L 314 563 L 317 560 L 322 560 L 328 554 L 336 552 L 339 549 L 342 549 L 344 546 L 348 546 L 352 541 L 355 541 L 358 538 L 361 538 L 367 532 L 370 532 L 374 527 L 378 527 L 380 524 L 382 524 L 394 516 L 396 513 L 398 513 L 410 505 L 416 499 Z M 741 493 L 736 491 L 699 530 L 699 636 L 686 665 L 440 810 L 410 807 L 248 711 L 172 715 L 398 848 L 419 854 L 436 854 L 466 846 L 701 708 L 722 688 L 735 664 L 741 640 Z M 417 429 L 412 425 L 410 426 L 404 426 L 400 429 L 400 441 L 401 442 L 410 442 L 412 444 L 417 441 Z M 471 422 L 442 422 L 441 424 L 441 446 L 440 447 L 425 447 L 423 448 L 422 450 L 422 470 L 424 472 L 444 472 L 447 468 L 447 463 L 445 461 L 445 459 L 446 458 L 471 458 L 472 457 L 472 423 Z M 486 400 L 485 401 L 485 416 L 486 417 L 495 417 L 497 419 L 502 416 L 502 401 L 500 400 Z M 441 388 L 441 413 L 442 414 L 469 414 L 471 411 L 471 404 L 469 402 L 469 387 L 442 387 Z M 727 302 L 484 364 L 487 370 L 556 397 L 454 491 L 388 538 L 305 582 L 239 604 L 198 606 L 180 601 L 164 583 L 164 559 L 186 509 L 233 451 L 313 380 L 305 381 L 214 447 L 142 522 L 120 559 L 109 592 L 115 636 L 140 661 L 190 675 L 263 670 L 331 651 L 411 618 L 490 574 L 559 524 L 623 461 L 647 541 L 653 543 Z M 516 279 L 510 274 L 506 274 L 502 269 L 493 266 L 487 260 L 479 258 L 473 252 L 451 241 L 449 238 L 445 238 L 437 233 L 423 233 L 420 236 L 417 235 L 404 244 L 390 249 L 379 258 L 377 257 L 366 266 L 362 266 L 360 269 L 358 268 L 333 285 L 324 288 L 314 296 L 310 296 L 287 312 L 284 312 L 272 321 L 264 324 L 259 329 L 255 329 L 240 340 L 236 340 L 226 348 L 217 351 L 215 354 L 205 359 L 194 372 L 194 413 L 204 414 L 206 411 L 205 378 L 215 365 L 224 362 L 234 354 L 238 354 L 253 343 L 257 343 L 267 335 L 281 329 L 286 324 L 290 324 L 305 313 L 314 310 L 320 304 L 322 305 L 333 296 L 337 296 L 347 288 L 356 285 L 366 277 L 370 277 L 380 269 L 389 266 L 391 263 L 394 263 L 399 258 L 402 258 L 412 250 L 416 250 L 424 244 L 435 244 L 451 255 L 454 255 L 456 258 L 465 261 L 470 266 L 479 269 L 497 282 L 506 285 L 508 288 Z M 595 236 L 515 192 L 472 164 L 452 156 L 420 153 L 387 164 L 349 186 L 344 192 L 316 205 L 292 222 L 156 299 L 134 321 L 123 341 L 117 364 L 117 484 L 123 485 L 134 468 L 159 444 L 159 371 L 164 353 L 179 335 L 221 313 L 226 307 L 282 277 L 300 263 L 348 238 L 404 203 L 419 197 L 440 197 L 563 268 L 570 266 Z M 852 117 L 810 109 L 778 115 L 752 129 L 732 149 L 718 173 L 593 299 L 594 302 L 709 206 L 711 225 L 635 307 L 646 302 L 714 244 L 730 274 L 752 296 L 784 311 L 724 385 L 720 395 L 803 315 L 823 317 L 689 480 L 855 307 L 886 285 L 906 254 L 914 228 L 914 198 L 906 172 L 895 152 L 871 128 Z M 817 293 L 818 292 L 819 293 L 818 294 Z M 795 120 L 829 120 L 838 126 L 849 126 L 860 137 L 866 137 L 872 143 L 873 149 L 886 157 L 886 169 L 894 176 L 894 180 L 897 182 L 897 199 L 902 206 L 900 209 L 895 203 L 889 209 L 889 213 L 893 217 L 897 213 L 897 210 L 899 208 L 900 209 L 900 229 L 894 231 L 893 238 L 895 241 L 887 250 L 889 253 L 889 259 L 885 260 L 881 258 L 876 261 L 875 265 L 870 271 L 869 279 L 864 275 L 856 277 L 854 280 L 851 280 L 848 283 L 847 290 L 843 288 L 830 288 L 822 299 L 818 294 L 822 293 L 823 284 L 817 277 L 807 277 L 801 283 L 801 290 L 815 290 L 818 292 L 817 293 L 808 293 L 804 295 L 802 299 L 794 288 L 782 288 L 777 293 L 776 283 L 770 277 L 767 277 L 764 274 L 756 277 L 752 267 L 742 257 L 737 257 L 734 260 L 732 258 L 736 249 L 727 237 L 730 235 L 730 231 L 724 226 L 724 209 L 722 208 L 722 201 L 727 197 L 727 180 L 738 166 L 736 164 L 738 158 L 743 153 L 746 153 L 759 137 L 762 137 L 764 134 L 768 134 L 772 129 L 775 129 L 778 126 L 789 126 Z M 779 272 L 779 278 L 781 280 L 792 280 L 795 283 L 798 282 L 799 280 L 799 276 L 798 274 L 797 274 L 795 271 L 791 268 L 784 268 Z M 845 272 L 838 266 L 835 269 L 833 268 L 827 274 L 826 274 L 826 282 L 828 283 L 836 277 L 838 277 L 840 279 L 842 279 L 845 277 Z M 801 264 L 801 271 L 803 272 L 805 272 L 808 269 L 811 269 L 814 271 L 817 271 L 818 272 L 822 272 L 823 271 L 823 262 L 819 260 L 816 257 L 813 257 L 812 258 L 811 257 L 808 257 Z M 864 256 L 862 255 L 855 255 L 851 258 L 851 261 L 848 263 L 848 271 L 850 271 L 857 266 L 864 266 L 864 265 L 867 263 L 867 261 L 864 258 Z M 757 261 L 757 265 L 758 266 L 769 266 L 772 269 L 776 269 L 777 267 L 777 262 L 773 258 L 770 258 L 768 255 L 763 255 L 763 256 Z M 826 260 L 827 261 L 830 261 L 835 258 L 838 258 L 840 260 L 842 260 L 845 257 L 845 254 L 841 249 L 832 249 L 826 256 Z M 801 242 L 801 246 L 802 247 L 816 247 L 819 250 L 822 250 L 823 249 L 823 242 L 818 238 L 805 238 Z M 742 238 L 741 239 L 741 243 L 740 245 L 745 250 L 751 250 L 752 251 L 752 255 L 756 255 L 757 254 L 757 244 L 756 244 L 754 241 L 750 241 L 747 238 Z M 760 236 L 760 243 L 761 244 L 767 243 L 769 241 L 775 247 L 778 247 L 779 246 L 776 242 L 777 239 L 775 236 L 770 236 L 766 233 L 764 233 Z "/>
</svg>
